<svg xmlns="http://www.w3.org/2000/svg" viewBox="0 0 128 128" width="128" height="128">
  <defs>
    <linearGradient id="bgGradient" x1="0%" y1="0%" x2="100%" y2="100%">
      <stop offset="0%" style="stop-color:#C91E18"/>
      <stop offset="100%" style="stop-color:#a11813"/>
    </linearGradient>
    <linearGradient id="starGold" x1="0%" y1="0%" x2="0%" y2="100%">
      <stop offset="0%" style="stop-color:#fbbf24"/>
      <stop offset="100%" style="stop-color:#f59e0b"/>
    </linearGradient>
  </defs>
  
  <!-- Background -->
  <rect width="128" height="128" fill="url(#bgGradient)" rx="24"/>
  
  <!-- Main star -->
  <g fill="url(#starGold)" transform="translate(64, 50)">
    <polygon points="0,-28 8,-9 28,-9 13,4 20,24 0,12 -20,24 -13,4 -28,-9 -8,-9"/>
  </g>
  
  <!-- Small stars -->
  <g fill="white" opacity="0.9">
    <polygon points="22,35 24,40 29,40 25,44 27,49 22,46 17,49 19,44 15,40 20,40" transform="scale(0.7)"/>
    <polygon points="106,35 108,40 113,40 109,44 111,49 106,46 101,49 103,44 99,40 104,40" transform="scale(0.7)"/>
  </g>
  
  <!-- Google G badge -->
  <g transform="translate(84, 75)">
    <circle cx="16" cy="16" r="18" fill="white"/>
    <circle cx="16" cy="16" r="14" fill="#4285F4"/>
    <path d="M16 8 C11.6 8 8 11.6 8 16 C8 20.4 11.6 24 16 24 C20.4 24 24 20.4 24 16 L18 16 L18 18 L21.5 18 C21 20.5 18.8 22 16 22 C12.7 22 10 19.3 10 16 C10 12.7 12.7 10 16 10 C17.5 10 18.9 10.5 20 11.4 L21.5 10 C20 8.7 18.1 8 16 8 Z" fill="white"/>
  </g>
  
  <!-- 5.0 text -->
  <text x="64" y="108" font-size="20" font-weight="bold" fill="white" text-anchor="middle" font-family="Arial, sans-serif">5.0 ★</text>
</svg>
